# xmcd CD database file
#
# Track frame offsets:
#	150
#	13815
#	27987
#	37792
#	53908
#	68761
#	80828
#	96034
#	113921
#	125275
#	145051
#	155910
#	179027
#
# Disc length: 2549 seconds
#
# Revision: 0
# Processed by: cddbd v1.5.1PL0 Copyright (c) Steve Scherf et al.
# Submitted via: CDex 1.50beta10
#
DISCID=b109f30d
DTITLE=City Slickers - Love, Divorce and Pumpkins
DYEAR=2005
DGENRE=Country
TTITLE0=Ain't gonna worry 'bout love
TTITLE1=Old one better
TTITLE2=Grandma's featherbed
TTITLE3=Alabama clay
TTITLE4=You're gonna love me one day
TTITLE5=Right now
TTITLE6=Thank God for the radio
TTITLE7=He thinks he'll keep her
TTITLE8=Goin' through the big "D"
TTITLE9=Walkaway Joe
TTITLE10=Some days you gotta dance
TTITLE11=Texas in 1880
TTITLE12=Hole in the world
EXTD=YEAR: 2005
EXTT0=
EXTT1=
EXTT2=
EXTT3=
EXTT4=
EXTT5=
EXTT6=
EXTT7=
EXTT8=
EXTT9=
EXTT10=
EXTT11=
EXTT12=
PLAYORDER=
